<?xml version="1.0" encoding="iso-8859-1"?>
<!-- Generator: Adobe Illustrator 19.0.0, SVG Export Plug-In . SVG Version: 6.00 Build 0)  -->
<svg version="1.1" id="Capa_1" xmlns="http://www.w3.org/2000/svg" xmlns:xlink="http://www.w3.org/1999/xlink" x="0px" y="0px"
	 viewBox="0 0 512 512" style="enable-background:new 0 0 512 512;" xml:space="preserve">
<g>
	<g transform="translate(19 1)">
		<polygon style="fill:#CFD8DC;" points="219.933,212.333 219.933,260.692 219.933,280.028 219.933,502.467 254.067,502.467 
			254.067,280.028 254.067,260.692 254.067,212.333 		"/>
		<path style="fill:#F57C00;" d="M322.333,169.667V229.4c-0.028,9.414-7.652,17.039-17.067,17.067H168.733
			c-9.414-0.028-17.039-7.652-17.067-17.067v-59.733H322.333z"/>
		<path style="fill:#FF9801;" d="M296.733,169.667V229.4c0.621,8.691-5.829,16.28-14.507,17.067H166.173
			c-8.678-0.787-15.128-8.376-14.507-17.067v-59.733H296.733z"/>
		<path style="fill:#D84315;" d="M322.333,24.6v162.133H151.667V24.6c0.028-9.414,7.652-17.039,17.067-17.067h136.533
			C314.681,7.561,322.306,15.186,322.333,24.6z"/>
		<path style="fill:#FF5722;" d="M296.733,24.6v162.133H151.667V24.6c-0.621-8.691,5.829-16.28,14.507-17.067h116.053
			C290.904,8.32,297.355,15.909,296.733,24.6z"/>
		<path style="fill:#D84315;" d="M185.8,306.2h102.4c9.426,0,17.067,7.641,17.067,17.067v25.6c0,9.426-7.641,17.067-17.067,17.067
			H185.8c-9.426,0-17.067-7.641-17.067-17.067v-25.6C168.733,313.841,176.374,306.2,185.8,306.2z"/>
		<path style="fill:#FF5722;" d="M185.8,306.2h76.8c9.426,0,17.067,7.641,17.067,17.067v25.6c0,9.426-7.641,17.067-17.067,17.067
			h-76.8c-9.426,0-17.067-7.641-17.067-17.067v-25.6C168.733,313.841,176.374,306.2,185.8,306.2z"/>
	</g>
	<g>
		<path d="M230.4,162.133c2.264,0.001,4.435-0.897,6.035-2.498s2.499-3.772,2.498-6.035v-42.667H268.8
			c21.208,0,38.4-17.192,38.4-38.4s-17.192-38.4-38.4-38.4h-38.4c-2.264-0.001-4.435,0.897-6.035,2.498s-2.499,3.772-2.498,6.035
			V153.6c-0.001,2.264,0.897,4.435,2.498,6.035S228.136,162.135,230.4,162.133z M238.933,51.2H268.8
			c11.782,0,21.333,9.551,21.333,21.333c0,11.782-9.551,21.333-21.333,21.333h-29.867V51.2z"/>
		<path d="M204.8,204.8c-2.264-0.001-4.435,0.897-6.035,2.498s-2.499,3.772-2.498,6.035v8.533c0,4.713,3.821,8.533,8.533,8.533
			c4.713,0,8.533-3.821,8.533-8.533v-8.533c0.001-2.264-0.897-4.435-2.498-6.035S207.064,204.799,204.8,204.8z"/>
		<path d="M247.467,221.867v-8.533c0-4.713-3.821-8.533-8.533-8.533c-4.713,0-8.533,3.82-8.533,8.533v8.533
			c0,4.713,3.821,8.533,8.533,8.533C243.646,230.4,247.467,226.579,247.467,221.867z"/>
		<path d="M273.067,230.4c2.264,0.001,4.435-0.897,6.035-2.498c1.601-1.601,2.499-3.772,2.498-6.035v-8.533
			c0-4.713-3.82-8.533-8.533-8.533s-8.533,3.82-8.533,8.533v8.533c-0.001,2.264,0.897,4.435,2.498,6.035
			S270.803,230.401,273.067,230.4z"/>
		<path d="M307.2,230.4c2.264,0.001,4.435-0.897,6.035-2.498c1.601-1.601,2.499-3.772,2.498-6.035v-8.533
			c0-4.713-3.82-8.533-8.533-8.533s-8.533,3.82-8.533,8.533v8.533c-0.001,2.264,0.897,4.435,2.498,6.035
			C302.765,229.503,304.936,230.401,307.2,230.4z"/>
		<path d="M452.267,494.933H281.6V375.467h25.6c14.132-0.015,25.585-11.468,25.6-25.6v-25.6c-0.015-14.132-11.468-25.585-25.6-25.6
			h-25.6V256h42.667c14.132-0.015,25.585-11.468,25.6-25.6V25.6c-0.015-14.132-11.468-25.585-25.6-25.6H187.733
			c-14.132,0.015-25.585,11.468-25.6,25.6v204.8c0.015,14.132,11.468,25.585,25.6,25.6H230.4v42.667h-25.6
			c-14.132,0.015-25.585,11.468-25.6,25.6v25.6c0.015,14.132,11.468,25.585,25.6,25.6h25.6v119.467H8.533
			c-4.713,0-8.533,3.821-8.533,8.533C0,508.18,3.821,512,8.533,512h443.733c4.713,0,8.533-3.82,8.533-8.533
			C460.8,498.754,456.98,494.933,452.267,494.933z M187.733,17.067h136.533c4.712,0.003,8.53,3.822,8.533,8.533v153.6H179.2V25.6
			C179.203,20.888,183.022,17.07,187.733,17.067z M179.2,230.4v-34.133h153.6V230.4c-0.003,4.712-3.822,8.53-8.533,8.533H187.733
			C183.022,238.93,179.203,235.112,179.2,230.4z M247.467,256h17.067v42.667h-17.067V256z M196.267,349.867v-25.6
			c0.003-4.712,3.822-8.53,8.533-8.533h102.4c4.712,0.003,8.53,3.822,8.533,8.533v25.6c-0.003,4.712-3.822,8.53-8.533,8.533H204.8
			C200.088,358.397,196.27,354.578,196.267,349.867z M247.467,494.933V375.467h17.067v119.467H247.467z"/>
		<path d="M503.467,494.933H486.4c-4.713,0-8.533,3.821-8.533,8.533c0,4.713,3.82,8.533,8.533,8.533h17.067
			c4.713,0,8.533-3.82,8.533-8.533C512,498.754,508.18,494.933,503.467,494.933z"/>
	</g>
</g>
<g>
</g>
<g>
</g>
<g>
</g>
<g>
</g>
<g>
</g>
<g>
</g>
<g>
</g>
<g>
</g>
<g>
</g>
<g>
</g>
<g>
</g>
<g>
</g>
<g>
</g>
<g>
</g>
<g>
</g>
</svg>
